<?xml version="1.0" encoding="utf-8"?>
<!-- Generator: Adobe Illustrator 21.0.0, SVG Export Plug-In . SVG Version: 6.00 Build 0)  -->
<svg version="1.1" id="Ebene_1" xmlns="http://www.w3.org/2000/svg" xmlns:xlink="http://www.w3.org/1999/xlink" x="0px" y="0px"
	 viewBox="0 0 250 250" style="enable-background:new 0 0 250 250;" xml:space="preserve">
<style type="text/css">
	.st0{fill:#C1CCD1;}
</style>
<path class="st0" d="M154.5,118l-0.1,0.1l-21.9-21.9l58.1-58l-15-15c-11.6-11.6-30.5-11.6-42.2,0L81.5,75.1
	c-11.6,11.6-11.6,30.5,0,42.1l36.9,37L60.5,212l15.1,15.1c11.6,11.6,30.4,11.6,42,0l36.8-36.9l0.1,0.1l15.2-15.2
	c11.6-11.6,11.6-30.4,0-42L154.5,118z"/>
<path class="st0" d="M24.1,132.2c-11.9,11.9-11.9,31.2,0,43.1l21.6,21.6l21.6-21.6c11.9-11.9,11.9-31.2,0-43.1l-21.6-21.6
	L24.1,132.2z"/>
<path class="st0" d="M227.2,117.9c11.9-11.9,11.9-31.2,0-43.1l-21.6-21.6l-21.6,21.6c-11.9,11.9-11.9,31.2,0,43.1l21.6,21.6
	L227.2,117.9z"/>
</svg>
