<?xml version="1.0" ?><!DOCTYPE svg  PUBLIC '-//W3C//DTD SVG 1.0//EN'  'http://www.w3.org/TR/2001/REC-SVG-20010904/DTD/svg10.dtd'><svg enable-background="new 0 0 200 200" height="200px" id="Layer_1" version="1.0" viewBox="0 0 200 200" width="200px" xml:space="preserve" xmlns="http://www.w3.org/2000/svg" xmlns:xlink="http://www.w3.org/1999/xlink"><g id="New_Symbol"/><g id="New_Symbol_1_"/><g id="New_Symbol_1"/><g id="New_Symbol_9_2_"/><g id="New_Symbol_7"/><g id="New_Symbol_9_1_"/><g id="New_Symbol_9"/><g id="Nuevo_símbolo"/><g id="New_Symbol_10"/><g id="New_Symbol_12"/><g id="New_Symbol_14"/><g id="New_Symbol_15"/><g id="New_Symbol_16"/><g id="New_Symbol_17_1_"/><g id="New_Symbol_18"/><g id="New_Symbol_19"/><g id="New_Symbol_17"/><g><path d="M33,87.9c1.1,4,7.5,24.3,25,24.3c17.5,0,24.3-20.6,25.5-24.7c4.5-0.4,8.3-3.6,9.8-8.2c1.3-4.4,0.1-8.8-3.1-11.4   c0.1-3,0-16.8-8.8-26.1c-5.2-5.6-12.5-8.4-21.7-8.4c-10.3,0-18.3,3-23.8,9c-7.8,8.4-8.2,19.9-8.1,23.3c-2.3,0.6-3.8,3.1-4,6.8   C23.2,78,26,86.6,33,87.9z M37.2,43.7c5.1-5.5,12.6-8.3,22.3-8.3c8.6,0,15.4,2.6,20.2,7.7c7.4,7.8,8.2,19.6,8.2,23.7   c-1.9-0.9-5.5-2.9-9.8-6.1c-4.3-3.3-8.6-4.3-10.5-2.4c-0.7,0.8-1.5,2.5,0.6,5.9c-3-1-7.8-3-10.8-4.2c-2.5-1-4.4-1.8-5.4-2.1   C40.8,53.9,32.3,61,29.6,64C29.6,60.2,30.4,51,37.2,43.7z M25.5,71.8c0.1-2.5,1-4.8,3.1-4.8H29c0.4,0,1-0.1,1.3-0.5   c0.4-0.5,8.9-11.4,21.2-7.2c0.9,0.3,2.9,1.3,5.2,2.3c7.1,2.9,12.2,5.1,13.9,5.1c0,0,0.1,0,0.1,0l2-0.1L71.5,65   c-2.4-2.9-2.9-4.8-2.3-5.4c0.8-0.8,4-0.3,7.8,2.6c6,4.5,10.6,6.6,11.5,7c2.8,2,3.9,5.7,2.8,9.5c-0.9,3.1-3.8,6.8-8.6,6.9l-0.8,0   l-0.2,0.8c-0.1,0.2-5.9,23.9-23.7,23.9c-17.6,0-23.1-23.2-23.2-23.4l-0.2-0.7l-0.7-0.5C28,85,25.2,77,25.5,71.8z"/><path d="M189.6,132.6c4.9-15-5.6-24-8.1-25.8c0.3-2.8,0.8-14.4-9.7-23.9c4-4.2,5.7-16.3,2.1-28.1c-2.8-9.2-11-24.6-33.9-24.6   c-11,0-19.5,3.4-25.2,10.1c-10,11.7-8.2,29.5-7.7,33.1c-0.9,0.8-2.9,2.6-4.6,5.7c-2,3.6-3.9,9.7-1.7,18.2c-8.2,6.4-12,14-11.2,22.7   c-5.7-2.7-10.3-3.9-10.8-4l-0.3-0.5l-2.1-3.6l-1.2-2l-1.8,1.2c-2.7,2.3-5.7,4-8.7,5h-1.3h-9.3h-1.3c-3-1-6-2.7-8.7-5l-1.8-1.4   l-1.2,2.1l-2.1,3.6l-0.2,0.3c-5.2,1.5-35.3,11.5-35.3,35.2c0,0.6,0.4,1,1,1s1-0.4,1-1c0-21.9,27.9-31.5,33.6-33.2   c1.2,2.1,5.9,9.8,10.7,10.5l1.7,0.3l0.5-1.7l0.9-3c0.3,0.7,0.7,1.4,1.2,2L51,156.9l-0.1,0.7l0.4,0.6l5.7,9l1.7,2.7l1.7-2.8l5.4-9   l0.3-0.6l-0.1-0.7l-2.9-31.1c0.5-0.6,0.9-1.3,1.2-2l0.9,3l0.5,1.7l1.7-0.3c4.6-0.7,9.3-8.1,10.6-10.4c1.5,0.4,33.9,9.3,33.9,33.1   c0,0.6,0.4,1,1,1s1-0.4,1-1c0-12.8-8.6-21.4-17.3-27c2.3-0.7,4.7-1.3,7-1.9c5.2-1.3,10-2.6,14-4.9c1,1.8,8.4,14.5,15.4,15.6   l1.7,0.3l0.5-1.7l3.6-12l0.2-0.6l0.2,0.6l3.6,12l0.5,1.7l1.7-0.3c6.4-1,13.3-11.9,15.1-15c0.1,0,0.2,0.1,0.3,0.1   c0.3,0.1,34,8.8,34,33.1c0,0.6,0.4,1,1,1s1-0.4,1-1C196.6,143.5,193.7,137.5,189.6,132.6z M51.9,119.9l-1.9,6.4   c-3.9-0.6-8.5-8.3-9.3-9.6c0-0.1,0-0.3,0-0.4l2-3.4c2.8,2.4,5.9,3.6,9.3,4.6c-0.1,0.5-0.1,1.5-0.1,2   C51.8,119.6,51.9,119.7,51.9,119.9z M61.2,125.1l3,31.9l-5.4,9l-5.7-9l3-31.9c-1.2-1.1-2-2.9-2.1-5l0.4-1.7l0.2-0.4h8.3l0.2,0.4   l0.4,1.5C63.2,122,62.4,124,61.2,125.1z M67.3,126.3l-1.9-6.4c0-0.1,0-0.2,0-0.4c0-0.5,0-0.9-0.1-1.4c3.3-1,6.4-2.8,9.3-5.2   l2.1,3.6C76.7,116.5,71.5,125.6,67.3,126.3z M133.5,130.7c-6.3-1-14-14.6-14-14.6l3.2-5.4c4.4,3.7,9.3,6.5,14.5,8L133.5,130.7z    M145,130.7l-3.6-12c5.2-1.5,10.1-4.2,14.5-8l3.2,5.4C159,116,151.3,129.7,145,130.7z M188,130.9c-9.9-10.2-25.1-14.5-26.8-15   l-0.5-0.9l-3.2-5.4l-1.2-2l-1.8,1.5c-4.3,3.6-8.9,6.2-13.7,7.6l-1.5,0.4l-1.5-0.4c-4.8-1.4-9.4-4-13.7-7.6l-1.8-1.5l-1.2,2   l-3.2,5.4l0,0c-0.2,0-0.4,0-0.6,0.1c-3.8,2.3-8.7,3.6-13.9,4.9c-2.9,0.7-5.9,1.5-8.7,2.5c-1-0.6-2-1.1-2.9-1.6   c-1.2-8.8,2.4-16.1,10.9-22.5L103,98l-0.2-0.7c-4.2-15.6,5.5-22.5,5.9-22.8l0.5-0.4l-0.1-0.6c0-0.2-3.1-20,7.2-32.1   c5.3-6.2,13.3-9.4,23.7-9.4c21.7,0,29.4,14.6,32,23.2c3.5,11.5,1.6,24-2.3,26.7l-1.1,0.7l1,0.9c11.8,10.1,9.8,23.3,9.8,23.4   l-0.1,0.6l0.5,0.4C180.4,108.4,192.1,116.2,188,130.9z"/><path d="M77.5,150.6v2.8v9.2c0,2.4,1.8,2.4,4.3,2.4h14.4c2.4,0,5.4,0.1,5.4-2.4v-9.2v-2.8V145h-24V150.6z M79.5,147h20v3h-20V147z    M79.5,152h20v10.6c0,1.3-2,0.4-3.4,0.4H81.8c-1.3,0-2.3,1-2.3-0.4V152z"/><path d="M139.6,94.6c-6,0-7.8,3.2-7.9,3.3l-0.2,0.4l0.1,0.4c0,0.2,1.3,4.4,7.9,4.4c6.5,0,8.5-4,8.6-4.2l0.3-0.6l-0.4-0.5   C148,97.7,145.5,94.6,139.6,94.6z M139.6,101.1c-4,0-5.4-1.7-5.8-2.5c0.6-0.6,2.2-2,5.8-2c3.5,0,5.5,1.2,6.4,2   C145.3,99.5,143.5,101.1,139.6,101.1z"/><path d="M163.7,72.8l-0.1-0.8h-0.9c-0.2,0-22.6,0.7-42.2-14.7l-1.4-0.6l-0.2,0.9c-1,7.7-4.2,14.4-6,17.6l-0.2,0.4l0.1,0.4   c1.9,9.1,5.5,18.2,9.9,24.8c5.1,7.8,11,11.9,16.9,11.9c11.4,0,21.1-15.5,25.6-30.9l0.1-0.3l-0.1-0.7   C164.3,77.8,163.8,73.5,163.7,72.8z M139.7,110.7c-11.3,0-21.2-17.8-24.8-34.8c1.8-3.2,4.6-9.2,5.8-16.2   c17.8,13.3,36.9,14.8,41.2,15c0.2,1.4,0.7,4.3,1.5,6.8C158.9,96.1,150,110.7,139.7,110.7z"/></g></svg>