<?xml version="1.0" encoding="UTF-8" standalone="no"?>
<!DOCTYPE svg PUBLIC "-//W3C//DTD SVG 1.1//EN" "http://www.w3.org/Graphics/SVG/1.1/DTD/svg11.dtd">
<svg width="100%" height="100%" viewBox="0 0 675 768" version="1.1" xmlns="http://www.w3.org/2000/svg" xmlns:xlink="http://www.w3.org/1999/xlink" xml:space="preserve" xmlns:serif="http://www.serif.com/" style="fill-rule:evenodd;clip-rule:evenodd;">
    <g transform="matrix(1.71959,0,0,1.71959,-223.158,-275.405)">
        <path d="M465.391,381.102C464.851,381.43 447.042,378.442 424.726,376.931C406.501,375.696 385.27,375.743 367.982,376.914C353.963,377.863 335.544,370.816 333.343,379.191C325.105,410.542 307.38,437.846 284.832,459.119C267.869,475.122 248.455,487.257 227.457,494.734C202.458,481.892 190.652,453.33 201.305,428.287C209.754,408.424 219.585,386.547 201.435,381.542C188.222,377.898 180.967,390.555 175.888,404.087C166.158,430.01 147.669,456.835 142.4,488.608C136.838,522.15 142.382,557.755 171.392,577.861C238.954,624.687 312.292,548.833 389.617,529.765C417.641,522.854 448.402,523.968 473.092,509.668C491.633,498.929 503.856,481.133 507.325,461.152C512.905,429.015 496.186,397.086 465.391,381.102Z" style="fill:rgb(153,66,91);fill-rule:nonzero;stroke:white;stroke-width:20px;"/>
    </g>
    <g transform="matrix(1.71959,0,0,1.71959,-223.158,-275.405)">
        <path d="M333.343,379.191C325.105,410.542 307.38,437.846 284.832,459.119C267.869,475.122 248.455,487.257 227.456,494.734C202.457,481.892 190.651,453.33 201.304,428.287C209.753,408.424 219.584,386.547 201.434,381.542C188.221,377.898 180.966,390.555 175.887,404.087C166.157,430.01 147.668,456.835 142.399,488.608C136.837,522.15 142.381,557.755 171.391,577.861C238.953,624.687 312.291,548.833 389.617,529.765C417.641,522.854 448.402,523.968 473.092,509.668C491.633,498.929 503.856,481.133 507.325,461.153C512.905,429.016 496.186,397.087 465.391,381.103" style="fill:none;stroke:white;stroke-width:20px;"/>
    </g>
    <g transform="matrix(1.71959,0,0,1.71959,-223.158,-275.405)">
        <path d="M395.364,254.17L449.685,364.982L514.778,173L275.789,173L340.732,364.641L395.364,254.17Z" style="fill:rgb(153,66,91);fill-rule:nonzero;"/>
    </g>
    <g transform="matrix(1.71959,0,0,1.71959,-223.158,-275.405)">
        <path d="M395.364,254.17L449.685,364.982L514.777,173L275.789,173L340.732,364.641L395.364,254.17Z" style="fill:none;stroke:white;stroke-width:20px;"/>
    </g>
    <g transform="matrix(1.71959,0,0,1.71959,-223.158,-275.405)">
        <circle cx="329.46" cy="379.583" r="40.945" style="fill:rgb(153,66,91);"/>
    </g>
    <g transform="matrix(1.71959,0,0,1.71959,-223.158,-275.405)">
        <circle cx="329.46" cy="379.583" r="40.945" style="fill:none;stroke:white;stroke-width:20px;"/>
    </g>
    <g transform="matrix(1.71959,0,0,1.71959,-223.158,-275.405)">
        <circle cx="462.844" cy="379.583" r="40.945" style="fill:rgb(153,66,91);stroke:white;stroke-width:20px;"/>
    </g>
    <g transform="matrix(1.71959,0,0,1.71959,-223.158,-275.405)">
        <circle cx="462.844" cy="379.583" r="40.945" style="fill:none;stroke:white;stroke-width:20px;"/>
    </g>
    <g transform="matrix(1.71959,0,0,1.71959,-223.158,-275.405)">
        <circle cx="195.571" cy="379.877" r="40.945" style="fill:rgb(153,66,91);"/>
    </g>
    <g transform="matrix(1.71959,0,0,1.71959,-223.158,-275.405)">
        <circle cx="195.571" cy="379.877" r="40.945" style="fill:none;stroke:white;stroke-width:20px;"/>
    </g>
</svg>
