<?xml version="1.0" encoding="UTF-8" standalone="no"?>
<!DOCTYPE svg PUBLIC "-//W3C//DTD SVG 1.1//EN" "http://www.w3.org/Graphics/SVG/1.1/DTD/svg11.dtd">
<svg width="100%" height="100%" viewBox="0 0 220 130" version="1.1" xmlns="http://www.w3.org/2000/svg" xmlns:xlink="http://www.w3.org/1999/xlink" xml:space="preserve" xmlns:serif="http://www.serif.com/" style="fill-rule:evenodd;clip-rule:evenodd;stroke-linejoin:round;stroke-miterlimit:1.41421;">
    <g transform="matrix(1,0,0,1,-18,-136)">
        <path d="M183.757,171.898L199.809,149.665C201.014,147.993 200.637,145.657 198.965,144.452C197.289,143.246 194.959,143.62 193.75,145.293L177.668,167.569C177.46,167.861 177.316,168.174 177.198,168.497C162.396,161.433 145.605,157.425 127.794,157.425C110.296,157.425 93.791,161.296 79.18,168.13C79.088,167.939 78.984,167.747 78.855,167.569L62.773,145.293C61.567,143.62 59.236,143.247 57.561,144.449C55.888,145.657 55.511,147.992 56.718,149.665L72.495,171.517C42.012,188.378 21.287,218.75 20.006,253.687L235.582,253.687C234.311,219.006 213.872,188.833 183.757,171.898Z" style="fill:rgb(167,191,209);fill-rule:nonzero;"/>
    </g>
    <g transform="matrix(1,0,0,1,-18,-136)">
        <path d="M75.661,182.549C75.126,182.549 74.606,182.271 74.321,181.774C73.897,181.035 74.153,180.091 74.891,179.669C77.002,178.459 79.195,177.304 81.411,176.239C82.178,175.873 83.1,176.193 83.469,176.962C83.838,177.729 83.515,178.651 82.746,179.021C80.599,180.053 78.472,181.171 76.426,182.345C76.185,182.482 75.92,182.549 75.661,182.549Z" style="fill:rgb(241,242,242);fill-rule:nonzero;"/>
    </g>
    <g transform="matrix(1,0,0,1,-18,-136)">
        <path d="M40.192,218.337C39.942,218.337 39.69,218.277 39.456,218.149C38.707,217.742 38.431,216.805 38.839,216.057C45.805,203.261 56.131,192.012 68.7,183.527C69.406,183.049 70.367,183.236 70.841,183.942C71.318,184.647 71.132,185.606 70.426,186.083C58.264,194.294 48.279,205.17 41.548,217.532C41.269,218.047 40.739,218.337 40.192,218.337Z" style="fill:rgb(241,242,242);fill-rule:nonzero;"/>
    </g>
    <g transform="matrix(1,0,0,1,-18,-136)">
        <path d="M162.342,205.37C162.342,225.78 151.574,243.668 135.417,253.686L235.583,253.686C234.311,219.005 213.872,188.832 183.757,171.898L199.809,149.665C201.014,147.993 200.637,145.657 198.965,144.452C197.289,143.246 194.959,143.62 193.75,145.293L177.668,167.569C177.46,167.861 177.316,168.174 177.198,168.497C164.834,162.595 151.084,158.839 136.51,157.757C152.057,167.895 162.342,185.426 162.342,205.37Z" style="fill:rgb(143,163,184);fill-rule:nonzero;"/>
    </g>
    <g transform="matrix(1,0,0,1,-18,-136)">
        <path d="M235.583,256L20.007,256C19.379,256 18.777,255.745 18.341,255.292C17.905,254.84 17.671,254.229 17.695,253.602C18.94,219.642 38.102,188.865 69.11,170.779L54.842,151.019C52.891,148.314 53.503,144.526 56.208,142.574C57.251,141.826 58.473,141.431 59.746,141.431C61.685,141.431 63.52,142.369 64.652,143.941L80.006,165.209C94.991,158.509 111.059,155.111 127.796,155.111C144.82,155.111 161.124,158.613 176.295,165.522L191.875,143.939C193.01,142.369 194.844,141.431 196.781,141.431C198.056,141.431 199.281,141.827 200.318,142.575C201.631,143.521 202.494,144.92 202.752,146.515C203.01,148.11 202.631,149.709 201.688,151.018L187.135,171.175C217.743,189.315 236.663,219.946 237.897,253.602C237.92,254.23 237.687,254.84 237.251,255.292C236.813,255.745 236.211,256 235.583,256ZM22.439,251.372L233.15,251.372C231.134,219.476 212.386,190.653 182.623,173.915C182.047,173.593 181.639,173.039 181.497,172.395C181.355,171.751 181.494,171.078 181.881,170.543L197.932,148.309C198.155,148.002 198.243,147.627 198.182,147.252C198.121,146.877 197.92,146.549 197.614,146.328C197.303,146.105 196.989,146.057 196.78,146.057C196.317,146.057 195.897,146.271 195.627,146.646L179.545,168.921C179.493,168.993 179.436,169.114 179.372,169.288C179.149,169.899 178.678,170.39 178.074,170.637C177.47,170.882 176.792,170.865 176.202,170.583C161.124,163.387 144.837,159.737 127.795,159.737C111.066,159.737 95.04,163.264 80.161,170.223C79.014,170.759 77.645,170.272 77.095,169.128C77.063,169.062 77.032,168.992 76.986,168.929L60.898,146.645C60.628,146.27 60.209,146.056 59.745,146.056C59.537,146.056 59.222,146.104 58.911,146.327C58.28,146.782 58.136,147.673 58.595,148.307L74.373,170.16C74.76,170.696 74.899,171.373 74.754,172.018C74.609,172.664 74.195,173.218 73.616,173.538C43.457,190.224 24.468,219.187 22.439,251.372Z" style="fill:rgb(89,74,66);fill-rule:nonzero;"/>
    </g>
    <g transform="matrix(1,0,0,1,-18,-136)">
        <circle cx="88.249" cy="203.364" r="10.277" style="fill:rgb(89,74,66);"/>
    </g>
    <g transform="matrix(1,0,0,1,-18,-136)">
        <circle cx="165.5" cy="203.364" r="10.277" style="fill:rgb(89,74,66);"/>
    </g>
    <g transform="matrix(1,0,0,1,-18,-136)">
        <path d="M234.471,189.76C234.471,202.555 226.445,212.929 216.541,212.929C206.639,212.929 198.609,202.555 198.609,189.76C198.609,176.966 216.541,145.707 216.541,145.707C216.541,145.707 234.471,176.966 234.471,189.76Z" style="fill:rgb(58,177,220);fill-rule:nonzero;"/>
        <path d="M216.541,215.241C205.377,215.241 196.296,203.81 196.296,189.76C196.296,176.502 213.79,145.855 214.535,144.556C214.947,143.837 215.713,143.394 216.541,143.394C217.371,143.394 218.137,143.837 218.549,144.556C219.293,145.855 236.784,176.502 236.784,189.76C236.784,203.811 227.703,215.241 216.541,215.241ZM216.541,150.479C211.919,158.98 200.924,180.208 200.924,189.76C200.924,201.259 207.93,210.614 216.541,210.614C225.152,210.614 232.156,201.259 232.156,189.76C232.156,180.204 221.163,158.979 216.541,150.479Z" style="fill:rgb(89,74,66);fill-rule:nonzero;"/>
    </g>
    <g transform="matrix(1,0,0,1,-18,-136)">
        <path d="M206.537,194.4C205.78,194.4 205.12,193.843 205.012,193.074C204.859,191.98 204.78,190.866 204.78,189.76C204.78,188.908 205.471,188.217 206.323,188.217C207.175,188.217 207.866,188.908 207.866,189.76C207.866,190.723 207.933,191.694 208.067,192.643C208.186,193.487 207.599,194.267 206.754,194.386C206.682,194.396 206.609,194.4 206.537,194.4Z" style="fill:rgb(241,242,242);fill-rule:nonzero;"/>
    </g>
    <g transform="matrix(1,0,0,1,-18,-136)">
        <path d="M216.541,206.758C212.961,206.758 209.609,204.399 207.348,200.285C206.937,199.539 207.209,198.6 207.955,198.19C208.704,197.781 209.642,198.053 210.052,198.798C211.755,201.895 214.12,203.671 216.541,203.671C217.394,203.671 218.084,204.362 218.084,205.214C218.084,206.066 217.394,206.758 216.541,206.758Z" style="fill:rgb(241,242,242);fill-rule:nonzero;"/>
    </g>
    <g transform="matrix(1,0,0,1,-18,-136)">
        <path d="M137.018,237.004C136.01,237.004 135.082,236.339 134.793,235.319C134.176,233.134 132.647,231.315 130.602,230.326C126.649,228.413 121.879,230.073 119.966,234.025C119.78,234.409 119.626,234.808 119.508,235.206C119.142,236.431 117.85,237.125 116.629,236.762C115.404,236.397 114.708,235.108 115.072,233.884C115.261,233.25 115.505,232.621 115.8,232.013C118.825,225.762 126.369,223.138 132.618,226.161C135.85,227.724 138.268,230.602 139.247,234.058C139.595,235.287 138.881,236.567 137.651,236.914C137.44,236.976 137.228,237.004 137.018,237.004Z" style="fill:rgb(89,74,66);fill-rule:nonzero;"/>
    </g>
</svg>
